name ./resultDataOpenSim/trcMotMarkerGrf/sub06/grf-13-06.mot
datacolumns 19
datarows 17
range 1.06800000 1.13200000
endheader

                time	     ground_force_vx	     ground_force_vy	     ground_force_vz	     ground_force_px	     ground_force_py	     ground_force_pz	   l_ground_force_vx	   l_ground_force_vy	   l_ground_force_vz	   l_ground_force_px	   l_ground_force_py	   l_ground_force_pz	     ground_torque_x	     ground_torque_y	     ground_torque_z	   l_ground_torque_x	   l_ground_torque_y	   l_ground_torque_z	
          1.06800000	          0.00000000	          0.00000000	          0.00000000	          0.00000000	          0.00000000	          0.00000000	        197.16905071	        602.27633105	         31.35358277	          0.05210728	         -0.04999700	         -0.06439541	          0.00000000	          0.00000000	          0.00000000	          0.00000000	         -2.35904210	          0.00000000	
          1.07200000	         -0.63287696	         27.19166698	          6.05078073	          0.70870904	          0.00000000	          0.07848942	        195.57741202	        572.18872982	         29.49396347	          0.05305419	         -0.04999700	         -0.06391781	          0.00000000	          0.51353839	          0.00000000	          0.00000000	         -2.16457908	          0.00000000	
          1.07600000	        -10.00440013	        197.69605962	         17.29105945	          0.71536548	          0.00000000	          0.07789358	        192.34831836	        538.48510431	         27.40049132	          0.05402273	         -0.04999676	         -0.06346315	          0.00000000	          0.13342234	          0.00000000	          0.00000000	         -1.95929859	          0.00000000	
          1.08000000	        -21.90427555	        352.90603907	         26.94226262	          0.72141171	          0.00000000	          0.07749713	        187.07816312	        500.96663755	         25.10298747	          0.05499642	         -0.04999580	         -0.06305154	          0.00000000	         -0.26345408	          0.00000000	          0.00000000	         -1.74374905	          0.00000000	
          1.08400000	        -38.58813623	        479.92560632	         33.50012551	          0.72727082	          0.00000000	          0.07773171	        179.40393273	        459.58712576	         22.64740712	          0.05597688	         -0.04999500	         -0.06271833	          0.00000000	         -0.66455984	          0.00000000	          0.00000000	         -1.51983087	          0.00000000	
          1.08800000	        -61.28824808	        574.91937188	         35.47298756	          0.73262161	          0.00000000	          0.07904890	        169.13178601	        414.59699045	         20.13777430	          0.05699157	         -0.04999500	         -0.06252678	          0.00000000	         -1.02200374	          0.00000000	          0.00000000	         -1.29136984	          0.00000000	
          1.09200000	        -89.42160602	        643.70906910	         32.04857880	          0.73770944	          0.00000000	          0.08116314	        156.26639116	        366.75256006	         17.71643171	          0.05810129	         -0.04999480	         -0.06252369	          0.00000000	         -1.25916372	          0.00000000	          0.00000000	         -1.06459966	          0.00000000	
          1.09600000	       -121.16033916	        696.08924529	         23.71824551	          0.74345585	          0.00000000	          0.08318436	        140.94028222	        317.44124936	         15.47296606	          0.05941136	         -0.04999244	         -0.06268386	          0.00000000	         -1.29261845	          0.00000000	          0.00000000	         -0.84801519	          0.00000000	
          1.10000000	       -154.40395443	        738.68503821	         12.20291618	          0.75038705	          0.00000000	          0.08454869	        123.42155289	        268.53707137	         13.39859762	          0.06099250	         -0.04999100	         -0.06292837	          0.00000000	         -1.06205483	          0.00000000	          0.00000000	         -0.65092710	          0.00000000	
          1.10400000	       -186.66181136	        772.72942288	         -0.28124210	          0.75760205	          0.00000000	          0.08538120	        104.28812948	        222.01584240	         11.44953690	          0.06290415	         -0.04999180	         -0.06318368	          0.00000000	         -0.55796899	          0.00000000	          0.00000000	         -0.48086627	          0.00000000	
          1.10800000	       -214.98642352	        797.44175809	        -11.80268147	          0.76369584	          0.00000000	          0.08598414	         84.57775661	        179.55077421	          9.62200098	          0.06516987	         -0.04999199	         -0.06347474	          0.00000000	          0.16236701	          0.00000000	          0.00000000	         -0.34127280	          0.00000000	
          1.11200000	       -237.40696133	        814.09594598	        -21.18352587	          0.76822491	          0.00000000	          0.08637924	         65.67172748	        142.24643230	          7.94998895	          0.06770211	         -0.04999200	         -0.06388056	          0.00000000	          0.97782616	          0.00000000	          0.00000000	         -0.23104112	          0.00000000	
          1.11600000	       -254.18305842	        826.73739520	        -28.06191453	          0.77195927	          0.00000000	          0.08651957	         48.90032156	        110.49582141	          6.46353032	          0.07014105	         -0.04999144	         -0.06436747	          0.00000000	          1.72728075	          0.00000000	          0.00000000	         -0.14595254	          0.00000000	
          1.12000000	       -266.83447871	        840.01388812	        -32.49624644	          0.77585756	          0.00000000	          0.08639904	         35.09629317	         83.98112442	          5.15902948	          0.07192856	         -0.04999227	         -0.06486364	          0.00000000	          2.24860067	          0.00000000	          0.00000000	         -0.08061910	          0.00000000	
          1.12400000	       -276.26383761	        856.73176455	        -34.50639144	          0.78002283	          0.00000000	          0.08606588	         24.38055864	         61.90004806	          3.98841943	          0.07257496	         -0.04999440	         -0.06538166	          0.00000000	          2.42116244	          0.00000000	          0.00000000	         -0.02980059	          0.00000000	
          1.12800000	       -282.51936951	        876.97632276	        -34.05546758	          0.78373455	          0.00000000	          0.08565832	         16.29282326	         43.31492040	          2.87373223	          0.07173822	         -0.04999644	         -0.06592339	          0.00000000	          2.19971788	          0.00000000	          0.00000000	          0.01100301	          0.00000000	
          1.13200000	       -286.08527527	        899.14043602	        -31.26209352	          0.78644094	          0.00000000	          0.08535659	         10.12727882	         27.37514623	          1.75236742	          0.06878212	         -0.04999700	         -0.06627609	          0.00000000	          1.62971681	          0.00000000	          0.00000000	          0.04533714	          0.00000000	
